# xmcd
#
# Track frame offsets:
# 150
# 14161
# 30663
# 43845
# 58075
# 72460
# 87372
# 105680
# 127938
# 143732
# 157538
# 171128
# 186478
# 207000
# 220946
# 233281
# 253220
# 268314
# 281823
# 295675
#
# Disc length: 4210 seconds
#
#
# Revision: 1
# Processed by: cddbd v1.5.2PL0 Copyright (c) Steve Scherf et al.
# Submitted via: FreeRIP 2.945 
#
DISCID=2d107014
DTITLE=Bear-G1999 - Darwins-Radio09
DYEAR=1999
DGENRE=Space
TTITLE0=DR 0901
TTITLE1=DR 0902
TTITLE2=DR 0903
TTITLE3=DR 0904
TTITLE4=DR 0905
TTITLE5=DR 0906
TTITLE6=DR 0907
TTITLE7=DR 0908
TTITLE8=DR 0909
TTITLE9=DR 0910
TTITLE10=DR 0911
TTITLE11=DR 0912
TTITLE12=DR 0913
TTITLE13=DR 0914
TTITLE14=DR 0915
TTITLE15=DR 0916
TTITLE16=DR 0917
TTITLE17=DR 0918
TTITLE18=DR 0919
TTITLE19=DR 0920
EXTD=Darwin's Radio by Greg Bear. Unabridged. \nPerformed by George Guidall. 15 CDs\nrecorded books Space
EXTT0=
EXTT1=
EXTT2=
EXTT3=
EXTT4=
EXTT5=
EXTT6=
EXTT7=
EXTT8=
EXTT9=
EXTT10=
EXTT11=
EXTT12=
EXTT13=
EXTT14=
EXTT15=
EXTT16=
EXTT17=
EXTT18=
EXTT19=
PLAYORDER=
